<svg width="40" height="40" viewBox="0 0 40 40" fill="none" xmlns="http://www.w3.org/2000/svg">

<svg x="4.0" y="4.0" width="32" height="32" viewBox="0 0 60 60" shape-rendering="crispEdges">
<rect x="49" y="2" width="3" height="1" fill="rgb(0,0,0)"/>
<rect x="48" y="3" width="1" height="1" fill="rgb(0,0,0)"/>
<rect x="49" y="3" width="3" height="1" fill="rgb(225,133,230)"/>
<rect x="52" y="3" width="1" height="1" fill="rgb(0,0,0)"/>
<rect x="47" y="4" width="1" height="1" fill="rgb(0,0,0)"/>
<rect x="48" y="4" width="1" height="1" fill="rgb(225,133,230)"/>
<rect x="49" y="4" width="2" height="1" fill="rgb(227,148,232)"/>
<rect x="51" y="4" width="2" height="1" fill="rgb(225,133,230)"/>
<rect x="53" y="4" width="1" height="1" fill="rgb(0,0,0)"/>
<rect x="46" y="5" width="1" height="1" fill="rgb(0,0,0)"/>
<rect x="47" y="5" width="5" height="1" fill="rgb(227,148,232)"/>
<rect x="52" y="5" width="1" height="1" fill="rgb(225,133,230)"/>
<rect x="53" y="5" width="1" height="1" fill="rgb(0,0,0)"/>
<rect x="42" y="6" width="4" height="1" fill="rgb(0,0,0)"/>
<rect x="46" y="6" width="1" height="1" fill="rgb(225,133,230)"/>
<rect x="47" y="6" width="3" height="1" fill="rgb(227,148,232)"/>
<rect x="50" y="6" width="3" height="1" fill="rgb(225,133,230)"/>
<rect x="53" y="6" width="1" height="1" fill="rgb(0,0,0)"/>
<rect x="41" y="7" width="1" height="1" fill="rgb(0,0,0)"/>
<rect x="42" y="7" width="1" height="1" fill="rgb(225,133,230)"/>
<rect x="43" y="7" width="3" height="1" fill="rgb(222,114,228)"/>
<rect x="46" y="7" width="1" height="1" fill="rgb(225,133,230)"/>
<rect x="47" y="7" width="2" height="1" fill="rgb(227,148,232)"/>
<rect x="49" y="7" width="4" height="1" fill="rgb(225,133,230)"/>
<rect x="53" y="7" width="1" height="1" fill="rgb(0,0,0)"/>
<rect x="41" y="8" width="1" height="1" fill="rgb(0,0,0)"/>
<rect x="42" y="8" width="1" height="1" fill="rgb(225,133,230)"/>
<rect x="43" y="8" width="3" height="1" fill="rgb(222,114,228)"/>
<rect x="46" y="8" width="6" height="1" fill="rgb(225,133,230)"/>
<rect x="52" y="8" width="1" height="1" fill="rgb(0,0,0)"/>
<rect x="42" y="9" width="1" height="1" fill="rgb(0,0,0)"/>
<rect x="43" y="9" width="4" height="1" fill="rgb(222,114,228)"/>
<rect x="47" y="9" width="4" height="1" fill="rgb(225,133,230)"/>
<rect x="51" y="9" width="1" height="1" fill="rgb(0,0,0)"/>
<rect x="41" y="10" width="2" height="1" fill="rgb(0,0,0)"/>
<rect x="43" y="10" width="7" height="1" fill="rgb(222,114,228)"/>
<rect x="50" y="10" width="1" height="1" fill="rgb(0,0,0)"/>
<rect x="40" y="11" width="1" height="1" fill="rgb(0,0,0)"/>
<rect x="41" y="11" width="2" height="1" fill="rgb(130,130,130)"/>
<rect x="43" y="11" width="1" height="1" fill="rgb(0,0,0)"/>
<rect x="44" y="11" width="5" height="1" fill="rgb(222,114,228)"/>
<rect x="49" y="11" width="1" height="1" fill="rgb(0,0,0)"/>
<rect x="39" y="12" width="1" height="1" fill="rgb(0,0,0)"/>
<rect x="40" y="12" width="2" height="1" fill="rgb(203,203,203)"/>
<rect x="42" y="12" width="2" height="1" fill="rgb(130,130,130)"/>
<rect x="44" y="12" width="1" height="1" fill="rgb(0,0,0)"/>
<rect x="45" y="12" width="4" height="1" fill="rgb(222,114,228)"/>
<rect x="49" y="12" width="1" height="1" fill="rgb(0,0,0)"/>
<rect x="38" y="13" width="1" height="1" fill="rgb(0,0,0)"/>
<rect x="39" y="13" width="2" height="1" fill="rgb(203,203,203)"/>
<rect x="41" y="13" width="1" height="1" fill="rgb(228,226,228)"/>
<rect x="42" y="13" width="1" height="1" fill="rgb(203,203,203)"/>
<rect x="43" y="13" width="2" height="1" fill="rgb(130,130,130)"/>
<rect x="45" y="13" width="1" height="1" fill="rgb(0,0,0)"/>
<rect x="46" y="13" width="3" height="1" fill="rgb(225,133,230)"/>
<rect x="49" y="13" width="1" height="1" fill="rgb(0,0,0)"/>
<rect x="37" y="14" width="1" height="1" fill="rgb(0,0,0)"/>
<rect x="38" y="14" width="2" height="1" fill="rgb(203,203,203)"/>
<rect x="40" y="14" width="1" height="1" fill="rgb(228,226,228)"/>
<rect x="41" y="14" width="3" height="1" fill="rgb(203,203,203)"/>
<rect x="44" y="14" width="1" height="1" fill="rgb(130,130,130)"/>
<rect x="45" y="14" width="4" height="1" fill="rgb(0,0,0)"/>
<rect x="36" y="15" width="1" height="1" fill="rgb(0,0,0)"/>
<rect x="37" y="15" width="2" height="1" fill="rgb(203,203,203)"/>
<rect x="39" y="15" width="1" height="1" fill="rgb(228,226,228)"/>
<rect x="40" y="15" width="4" height="1" fill="rgb(203,203,203)"/>
<rect x="44" y="15" width="1" height="1" fill="rgb(0,0,0)"/>
<rect x="36" y="16" width="1" height="1" fill="rgb(0,0,0)"/>
<rect x="37" y="16" width="1" height="1" fill="rgb(203,203,203)"/>
<rect x="38" y="16" width="1" height="1" fill="rgb(228,226,228)"/>
<rect x="39" y="16" width="4" height="1" fill="rgb(203,203,203)"/>
<rect x="43" y="16" width="1" height="1" fill="rgb(0,0,0)"/>
<rect x="36" y="17" width="1" height="1" fill="rgb(0,0,0)"/>
<rect x="37" y="17" width="5" height="1" fill="rgb(203,203,203)"/>
<rect x="42" y="17" width="1" height="1" fill="rgb(0,0,0)"/>
<rect x="35" y="18" width="1" height="1" fill="rgb(0,0,0)"/>
<rect x="36" y="18" width="1" height="1" fill="rgb(190,190,190)"/>
<rect x="37" y="18" width="4" height="1" fill="rgb(203,203,203)"/>
<rect x="41" y="18" width="1" height="1" fill="rgb(0,0,0)"/>
<rect x="34" y="19" width="1" height="1" fill="rgb(0,0,0)"/>
<rect x="35" y="19" width="2" height="1" fill="rgb(190,190,190)"/>
<rect x="37" y="19" width="1" height="1" fill="rgb(130,130,130)"/>
<rect x="38" y="19" width="1" height="1" fill="rgb(203,203,203)"/>
<rect x="39" y="19" width="2" height="1" fill="rgb(0,0,0)"/>
<rect x="34" y="20" width="1" height="1" fill="rgb(0,0,0)"/>
<rect x="35" y="20" width="3" height="1" fill="rgb(190,190,190)"/>
<rect x="38" y="20" width="1" height="1" fill="rgb(0,0,0)"/>
<rect x="35" y="21" width="3" height="1" fill="rgb(0,0,0)"/>
<rect x="27" y="22" width="4" height="1" fill="rgb(0,0,0)"/>
<rect x="26" y="23" width="1" height="1" fill="rgb(0,0,0)"/>
<rect x="27" y="23" width="4" height="1" fill="rgb(225,133,230)"/>
<rect x="31" y="23" width="1" height="1" fill="rgb(0,0,0)"/>
<rect x="25" y="24" width="1" height="1" fill="rgb(0,0,0)"/>
<rect x="26" y="24" width="2" height="1" fill="rgb(225,133,230)"/>
<rect x="28" y="24" width="1" height="1" fill="rgb(227,148,232)"/>
<rect x="29" y="24" width="3" height="1" fill="rgb(225,133,230)"/>
<rect x="32" y="24" width="1" height="1" fill="rgb(0,0,0)"/>
<rect x="16" y="25" width="5" height="1" fill="rgb(0,0,0)"/>
<rect x="24" y="25" width="1" height="1" fill="rgb(0,0,0)"/>
<rect x="25" y="25" width="2" height="1" fill="rgb(225,133,230)"/>
<rect x="27" y="25" width="1" height="1" fill="rgb(227,148,232)"/>
<rect x="28" y="25" width="5" height="1" fill="rgb(225,133,230)"/>
<rect x="33" y="25" width="1" height="1" fill="rgb(0,0,0)"/>
<rect x="39" y="25" width="5" height="1" fill="rgb(0,0,0)"/>
<rect x="15" y="26" width="1" height="1" fill="rgb(0,0,0)"/>
<rect x="16" y="26" width="5" height="1" fill="rgb(190,190,190)"/>
<rect x="21" y="26" width="1" height="1" fill="rgb(0,0,0)"/>
<rect x="24" y="26" width="1" height="1" fill="rgb(0,0,0)"/>
<rect x="25" y="26" width="8" height="1" fill="rgb(225,133,230)"/>
<rect x="33" y="26" width="1" height="1" fill="rgb(0,0,0)"/>
<rect x="38" y="26" width="1" height="1" fill="rgb(0,0,0)"/>
<rect x="39" y="26" width="5" height="1" fill="rgb(190,190,190)"/>
<rect x="44" y="26" width="1" height="1" fill="rgb(0,0,0)"/>
<rect x="14" y="27" width="1" height="1" fill="rgb(0,0,0)"/>
<rect x="15" y="27" width="6" height="1" fill="rgb(190,190,190)"/>
<rect x="21" y="27" width="1" height="1" fill="rgb(0,0,0)"/>
<rect x="24" y="27" width="1" height="1" fill="rgb(0,0,0)"/>
<rect x="25" y="27" width="6" height="1" fill="rgb(225,133,230)"/>
<rect x="31" y="27" width="1" height="1" fill="rgb(222,114,228)"/>
<rect x="32" y="27" width="1" height="1" fill="rgb(225,133,230)"/>
<rect x="33" y="27" width="1" height="1" fill="rgb(0,0,0)"/>
<rect x="38" y="27" width="1" height="1" fill="rgb(0,0,0)"/>
<rect x="39" y="27" width="6" height="1" fill="rgb(190,190,190)"/>
<rect x="45" y="27" width="1" height="1" fill="rgb(0,0,0)"/>
<rect x="13" y="28" width="1" height="1" fill="rgb(0,0,0)"/>
<rect x="14" y="28" width="7" height="1" fill="rgb(190,190,190)"/>
<rect x="21" y="28" width="1" height="1" fill="rgb(0,0,0)"/>
<rect x="24" y="28" width="1" height="1" fill="rgb(0,0,0)"/>
<rect x="25" y="28" width="5" height="1" fill="rgb(225,133,230)"/>
<rect x="30" y="28" width="1" height="1" fill="rgb(222,114,228)"/>
<rect x="31" y="28" width="2" height="1" fill="rgb(225,133,230)"/>
<rect x="33" y="28" width="1" height="1" fill="rgb(0,0,0)"/>
<rect x="38" y="28" width="1" height="1" fill="rgb(0,0,0)"/>
<rect x="39" y="28" width="7" height="1" fill="rgb(190,190,190)"/>
<rect x="46" y="28" width="1" height="1" fill="rgb(0,0,0)"/>
<rect x="12" y="29" width="1" height="1" fill="rgb(0,0,0)"/>
<rect x="13" y="29" width="8" height="1" fill="rgb(190,190,190)"/>
<rect x="21" y="29" width="1" height="1" fill="rgb(0,0,0)"/>
<rect x="25" y="29" width="1" height="1" fill="rgb(0,0,0)"/>
<rect x="26" y="29" width="3" height="1" fill="rgb(225,133,230)"/>
<rect x="29" y="29" width="1" height="1" fill="rgb(222,114,228)"/>
<rect x="30" y="29" width="2" height="1" fill="rgb(225,133,230)"/>
<rect x="32" y="29" width="1" height="1" fill="rgb(0,0,0)"/>
<rect x="38" y="29" width="1" height="1" fill="rgb(0,0,0)"/>
<rect x="39" y="29" width="8" height="1" fill="rgb(190,190,190)"/>
<rect x="47" y="29" width="1" height="1" fill="rgb(0,0,0)"/>
<rect x="11" y="30" width="1" height="1" fill="rgb(0,0,0)"/>
<rect x="12" y="30" width="9" height="1" fill="rgb(190,190,190)"/>
<rect x="21" y="30" width="1" height="1" fill="rgb(0,0,0)"/>
<rect x="26" y="30" width="1" height="1" fill="rgb(0,0,0)"/>
<rect x="27" y="30" width="4" height="1" fill="rgb(225,133,230)"/>
<rect x="31" y="30" width="1" height="1" fill="rgb(0,0,0)"/>
<rect x="38" y="30" width="1" height="1" fill="rgb(0,0,0)"/>
<rect x="39" y="30" width="9" height="1" fill="rgb(190,190,190)"/>
<rect x="48" y="30" width="1" height="1" fill="rgb(0,0,0)"/>
<rect x="10" y="31" width="1" height="1" fill="rgb(0,0,0)"/>
<rect x="11" y="31" width="9" height="1" fill="rgb(190,190,190)"/>
<rect x="20" y="31" width="1" height="1" fill="rgb(0,0,0)"/>
<rect x="27" y="31" width="4" height="1" fill="rgb(0,0,0)"/>
<rect x="39" y="31" width="1" height="1" fill="rgb(0,0,0)"/>
<rect x="40" y="31" width="9" height="1" fill="rgb(190,190,190)"/>
<rect x="49" y="31" width="1" height="1" fill="rgb(0,0,0)"/>
<rect x="9" y="32" width="1" height="1" fill="rgb(0,0,0)"/>
<rect x="10" y="32" width="9" height="1" fill="rgb(190,190,190)"/>
<rect x="19" y="32" width="1" height="1" fill="rgb(0,0,0)"/>
<rect x="40" y="32" width="1" height="1" fill="rgb(0,0,0)"/>
<rect x="41" y="32" width="9" height="1" fill="rgb(190,190,190)"/>
<rect x="50" y="32" width="1" height="1" fill="rgb(0,0,0)"/>
<rect x="8" y="33" width="1" height="1" fill="rgb(0,0,0)"/>
<rect x="9" y="33" width="9" height="1" fill="rgb(190,190,190)"/>
<rect x="18" y="33" width="1" height="1" fill="rgb(0,0,0)"/>
<rect x="41" y="33" width="1" height="1" fill="rgb(0,0,0)"/>
<rect x="42" y="33" width="9" height="1" fill="rgb(190,190,190)"/>
<rect x="51" y="33" width="1" height="1" fill="rgb(0,0,0)"/>
<rect x="7" y="34" width="1" height="1" fill="rgb(0,0,0)"/>
<rect x="8" y="34" width="9" height="1" fill="rgb(190,190,190)"/>
<rect x="17" y="34" width="1" height="1" fill="rgb(0,0,0)"/>
<rect x="42" y="34" width="1" height="1" fill="rgb(0,0,0)"/>
<rect x="43" y="34" width="9" height="1" fill="rgb(190,190,190)"/>
<rect x="52" y="34" width="1" height="1" fill="rgb(0,0,0)"/>
<rect x="6" y="35" width="1" height="1" fill="rgb(0,0,0)"/>
<rect x="7" y="35" width="9" height="1" fill="rgb(190,190,190)"/>
<rect x="16" y="35" width="1" height="1" fill="rgb(0,0,0)"/>
<rect x="43" y="35" width="1" height="1" fill="rgb(0,0,0)"/>
<rect x="44" y="35" width="9" height="1" fill="rgb(190,190,190)"/>
<rect x="53" y="35" width="1" height="1" fill="rgb(0,0,0)"/>
<rect x="5" y="36" width="1" height="1" fill="rgb(0,0,0)"/>
<rect x="6" y="36" width="9" height="1" fill="rgb(190,190,190)"/>
<rect x="15" y="36" width="1" height="1" fill="rgb(0,0,0)"/>
<rect x="44" y="36" width="1" height="1" fill="rgb(0,0,0)"/>
<rect x="45" y="36" width="9" height="1" fill="rgb(190,190,190)"/>
<rect x="54" y="36" width="1" height="1" fill="rgb(0,0,0)"/>
<rect x="4" y="37" width="1" height="1" fill="rgb(0,0,0)"/>
<rect x="5" y="37" width="9" height="1" fill="rgb(190,190,190)"/>
<rect x="14" y="37" width="1" height="1" fill="rgb(0,0,0)"/>
<rect x="45" y="37" width="1" height="1" fill="rgb(0,0,0)"/>
<rect x="46" y="37" width="9" height="1" fill="rgb(190,190,190)"/>
<rect x="55" y="37" width="1" height="1" fill="rgb(0,0,0)"/>
<rect x="3" y="38" width="1" height="1" fill="rgb(0,0,0)"/>
<rect x="4" y="38" width="9" height="1" fill="rgb(190,190,190)"/>
<rect x="13" y="38" width="1" height="1" fill="rgb(0,0,0)"/>
<rect x="46" y="38" width="1" height="1" fill="rgb(0,0,0)"/>
<rect x="47" y="38" width="9" height="1" fill="rgb(190,190,190)"/>
<rect x="56" y="38" width="1" height="1" fill="rgb(0,0,0)"/>
<rect x="3" y="39" width="1" height="1" fill="rgb(0,0,0)"/>
<rect x="4" y="39" width="8" height="1" fill="rgb(190,190,190)"/>
<rect x="12" y="39" width="1" height="1" fill="rgb(0,0,0)"/>
<rect x="47" y="39" width="1" height="1" fill="rgb(0,0,0)"/>
<rect x="48" y="39" width="8" height="1" fill="rgb(190,190,190)"/>
<rect x="56" y="39" width="1" height="1" fill="rgb(0,0,0)"/>
<rect x="3" y="40" width="1" height="1" fill="rgb(0,0,0)"/>
<rect x="4" y="40" width="7" height="1" fill="rgb(190,190,190)"/>
<rect x="11" y="40" width="1" height="1" fill="rgb(0,0,0)"/>
<rect x="48" y="40" width="1" height="1" fill="rgb(0,0,0)"/>
<rect x="49" y="40" width="7" height="1" fill="rgb(190,190,190)"/>
<rect x="56" y="40" width="1" height="1" fill="rgb(0,0,0)"/>
<rect x="3" y="41" width="1" height="1" fill="rgb(0,0,0)"/>
<rect x="4" y="41" width="7" height="1" fill="rgb(190,190,190)"/>
<rect x="11" y="41" width="1" height="1" fill="rgb(0,0,0)"/>
<rect x="48" y="41" width="1" height="1" fill="rgb(0,0,0)"/>
<rect x="49" y="41" width="7" height="1" fill="rgb(190,190,190)"/>
<rect x="56" y="41" width="1" height="1" fill="rgb(0,0,0)"/>
<rect x="3" y="42" width="1" height="1" fill="rgb(0,0,0)"/>
<rect x="4" y="42" width="7" height="1" fill="rgb(190,190,190)"/>
<rect x="11" y="42" width="1" height="1" fill="rgb(0,0,0)"/>
<rect x="48" y="42" width="1" height="1" fill="rgb(0,0,0)"/>
<rect x="49" y="42" width="7" height="1" fill="rgb(190,190,190)"/>
<rect x="56" y="42" width="1" height="1" fill="rgb(0,0,0)"/>
<rect x="3" y="43" width="1" height="1" fill="rgb(0,0,0)"/>
<rect x="4" y="43" width="8" height="1" fill="rgb(190,190,190)"/>
<rect x="12" y="43" width="1" height="1" fill="rgb(0,0,0)"/>
<rect x="47" y="43" width="1" height="1" fill="rgb(0,0,0)"/>
<rect x="48" y="43" width="8" height="1" fill="rgb(190,190,190)"/>
<rect x="56" y="43" width="1" height="1" fill="rgb(0,0,0)"/>
<rect x="3" y="44" width="1" height="1" fill="rgb(0,0,0)"/>
<rect x="4" y="44" width="9" height="1" fill="rgb(190,190,190)"/>
<rect x="13" y="44" width="1" height="1" fill="rgb(0,0,0)"/>
<rect x="46" y="44" width="1" height="1" fill="rgb(0,0,0)"/>
<rect x="47" y="44" width="9" height="1" fill="rgb(190,190,190)"/>
<rect x="56" y="44" width="1" height="1" fill="rgb(0,0,0)"/>
<rect x="4" y="45" width="1" height="1" fill="rgb(0,0,0)"/>
<rect x="5" y="45" width="9" height="1" fill="rgb(190,190,190)"/>
<rect x="14" y="45" width="1" height="1" fill="rgb(0,0,0)"/>
<rect x="45" y="45" width="1" height="1" fill="rgb(0,0,0)"/>
<rect x="46" y="45" width="9" height="1" fill="rgb(190,190,190)"/>
<rect x="55" y="45" width="1" height="1" fill="rgb(0,0,0)"/>
<rect x="5" y="46" width="1" height="1" fill="rgb(0,0,0)"/>
<rect x="6" y="46" width="9" height="1" fill="rgb(190,190,190)"/>
<rect x="15" y="46" width="1" height="1" fill="rgb(0,0,0)"/>
<rect x="44" y="46" width="1" height="1" fill="rgb(0,0,0)"/>
<rect x="45" y="46" width="9" height="1" fill="rgb(190,190,190)"/>
<rect x="54" y="46" width="1" height="1" fill="rgb(0,0,0)"/>
<rect x="6" y="47" width="1" height="1" fill="rgb(0,0,0)"/>
<rect x="7" y="47" width="9" height="1" fill="rgb(190,190,190)"/>
<rect x="16" y="47" width="1" height="1" fill="rgb(0,0,0)"/>
<rect x="43" y="47" width="1" height="1" fill="rgb(0,0,0)"/>
<rect x="44" y="47" width="9" height="1" fill="rgb(190,190,190)"/>
<rect x="53" y="47" width="1" height="1" fill="rgb(0,0,0)"/>
<rect x="7" y="48" width="1" height="1" fill="rgb(0,0,0)"/>
<rect x="8" y="48" width="9" height="1" fill="rgb(190,190,190)"/>
<rect x="17" y="48" width="1" height="1" fill="rgb(0,0,0)"/>
<rect x="42" y="48" width="1" height="1" fill="rgb(0,0,0)"/>
<rect x="43" y="48" width="9" height="1" fill="rgb(190,190,190)"/>
<rect x="52" y="48" width="1" height="1" fill="rgb(0,0,0)"/>
<rect x="8" y="49" width="1" height="1" fill="rgb(0,0,0)"/>
<rect x="9" y="49" width="9" height="1" fill="rgb(190,190,190)"/>
<rect x="18" y="49" width="1" height="1" fill="rgb(0,0,0)"/>
<rect x="41" y="49" width="1" height="1" fill="rgb(0,0,0)"/>
<rect x="42" y="49" width="9" height="1" fill="rgb(190,190,190)"/>
<rect x="51" y="49" width="1" height="1" fill="rgb(0,0,0)"/>
<rect x="9" y="50" width="1" height="1" fill="rgb(0,0,0)"/>
<rect x="10" y="50" width="9" height="1" fill="rgb(190,190,190)"/>
<rect x="19" y="50" width="1" height="1" fill="rgb(0,0,0)"/>
<rect x="40" y="50" width="1" height="1" fill="rgb(0,0,0)"/>
<rect x="41" y="50" width="9" height="1" fill="rgb(190,190,190)"/>
<rect x="50" y="50" width="1" height="1" fill="rgb(0,0,0)"/>
<rect x="10" y="51" width="1" height="1" fill="rgb(0,0,0)"/>
<rect x="11" y="51" width="9" height="1" fill="rgb(190,190,190)"/>
<rect x="20" y="51" width="1" height="1" fill="rgb(0,0,0)"/>
<rect x="39" y="51" width="1" height="1" fill="rgb(0,0,0)"/>
<rect x="40" y="51" width="9" height="1" fill="rgb(190,190,190)"/>
<rect x="49" y="51" width="1" height="1" fill="rgb(0,0,0)"/>
<rect x="11" y="52" width="1" height="1" fill="rgb(0,0,0)"/>
<rect x="12" y="52" width="9" height="1" fill="rgb(190,190,190)"/>
<rect x="21" y="52" width="1" height="1" fill="rgb(0,0,0)"/>
<rect x="38" y="52" width="1" height="1" fill="rgb(0,0,0)"/>
<rect x="39" y="52" width="9" height="1" fill="rgb(190,190,190)"/>
<rect x="48" y="52" width="1" height="1" fill="rgb(0,0,0)"/>
<rect x="12" y="53" width="1" height="1" fill="rgb(0,0,0)"/>
<rect x="13" y="53" width="8" height="1" fill="rgb(190,190,190)"/>
<rect x="21" y="53" width="1" height="1" fill="rgb(0,0,0)"/>
<rect x="38" y="53" width="1" height="1" fill="rgb(0,0,0)"/>
<rect x="39" y="53" width="8" height="1" fill="rgb(190,190,190)"/>
<rect x="47" y="53" width="1" height="1" fill="rgb(0,0,0)"/>
<rect x="13" y="54" width="1" height="1" fill="rgb(0,0,0)"/>
<rect x="14" y="54" width="7" height="1" fill="rgb(190,190,190)"/>
<rect x="21" y="54" width="1" height="1" fill="rgb(0,0,0)"/>
<rect x="38" y="54" width="1" height="1" fill="rgb(0,0,0)"/>
<rect x="39" y="54" width="7" height="1" fill="rgb(190,190,190)"/>
<rect x="46" y="54" width="1" height="1" fill="rgb(0,0,0)"/>
<rect x="14" y="55" width="1" height="1" fill="rgb(0,0,0)"/>
<rect x="15" y="55" width="6" height="1" fill="rgb(190,190,190)"/>
<rect x="21" y="55" width="1" height="1" fill="rgb(0,0,0)"/>
<rect x="38" y="55" width="1" height="1" fill="rgb(0,0,0)"/>
<rect x="39" y="55" width="6" height="1" fill="rgb(190,190,190)"/>
<rect x="45" y="55" width="1" height="1" fill="rgb(0,0,0)"/>
<rect x="15" y="56" width="1" height="1" fill="rgb(0,0,0)"/>
<rect x="16" y="56" width="5" height="1" fill="rgb(190,190,190)"/>
<rect x="21" y="56" width="1" height="1" fill="rgb(0,0,0)"/>
<rect x="38" y="56" width="1" height="1" fill="rgb(0,0,0)"/>
<rect x="39" y="56" width="5" height="1" fill="rgb(190,190,190)"/>
<rect x="44" y="56" width="1" height="1" fill="rgb(0,0,0)"/>
<rect x="16" y="57" width="5" height="1" fill="rgb(0,0,0)"/>
<rect x="39" y="57" width="5" height="1" fill="rgb(0,0,0)"/>
</svg>
</svg>