<svg width="40" height="40" viewBox="0 0 40 40" fill="none" xmlns="http://www.w3.org/2000/svg">

<svg x="4.0" y="4.0" width="32" height="32" viewBox="0 0 40 40" shape-rendering="crispEdges">
<rect x="30" y="3" width="3" height="1" fill="rgb(0,0,0)"/>
<rect x="29" y="4" width="1" height="1" fill="rgb(0,0,0)"/>
<rect x="30" y="4" width="2" height="1" fill="rgb(225,133,230)"/>
<rect x="32" y="4" width="1" height="1" fill="rgb(200,109,205)"/>
<rect x="33" y="4" width="1" height="1" fill="rgb(0,0,0)"/>
<rect x="28" y="5" width="1" height="1" fill="rgb(0,0,0)"/>
<rect x="29" y="5" width="1" height="1" fill="rgb(225,133,230)"/>
<rect x="30" y="5" width="1" height="1" fill="rgb(238,146,243)"/>
<rect x="31" y="5" width="1" height="1" fill="rgb(225,133,230)"/>
<rect x="32" y="5" width="1" height="1" fill="rgb(200,109,205)"/>
<rect x="33" y="5" width="1" height="1" fill="rgb(0,0,0)"/>
<rect x="27" y="6" width="1" height="1" fill="rgb(0,0,0)"/>
<rect x="28" y="6" width="1" height="1" fill="rgb(225,133,230)"/>
<rect x="29" y="6" width="1" height="1" fill="rgb(238,146,243)"/>
<rect x="30" y="6" width="1" height="1" fill="rgb(225,133,230)"/>
<rect x="31" y="6" width="2" height="1" fill="rgb(200,109,205)"/>
<rect x="33" y="6" width="1" height="1" fill="rgb(0,0,0)"/>
<rect x="26" y="7" width="1" height="1" fill="rgb(0,0,0)"/>
<rect x="27" y="7" width="1" height="1" fill="rgb(225,133,230)"/>
<rect x="28" y="7" width="1" height="1" fill="rgb(238,146,243)"/>
<rect x="29" y="7" width="2" height="1" fill="rgb(225,133,230)"/>
<rect x="31" y="7" width="1" height="1" fill="rgb(200,109,205)"/>
<rect x="32" y="7" width="1" height="1" fill="rgb(0,0,0)"/>
<rect x="23" y="8" width="3" height="1" fill="rgb(0,0,0)"/>
<rect x="26" y="8" width="4" height="1" fill="rgb(225,133,230)"/>
<rect x="30" y="8" width="2" height="1" fill="rgb(200,109,205)"/>
<rect x="32" y="8" width="1" height="1" fill="rgb(0,0,0)"/>
<rect x="22" y="9" width="1" height="1" fill="rgb(0,0,0)"/>
<rect x="23" y="9" width="1" height="1" fill="rgb(200,109,205)"/>
<rect x="24" y="9" width="2" height="1" fill="rgb(238,146,243)"/>
<rect x="26" y="9" width="1" height="1" fill="rgb(189,97,194)"/>
<rect x="27" y="9" width="2" height="1" fill="rgb(225,133,230)"/>
<rect x="29" y="9" width="2" height="1" fill="rgb(200,109,205)"/>
<rect x="31" y="9" width="1" height="1" fill="rgb(0,0,0)"/>
<rect x="23" y="10" width="1" height="1" fill="rgb(0,0,0)"/>
<rect x="24" y="10" width="2" height="1" fill="rgb(200,109,205)"/>
<rect x="26" y="10" width="2" height="1" fill="rgb(189,97,194)"/>
<rect x="28" y="10" width="2" height="1" fill="rgb(200,109,205)"/>
<rect x="30" y="10" width="1" height="1" fill="rgb(0,0,0)"/>
<rect x="23" y="11" width="2" height="1" fill="rgb(0,0,0)"/>
<rect x="25" y="11" width="2" height="1" fill="rgb(200,109,205)"/>
<rect x="27" y="11" width="2" height="1" fill="rgb(189,97,194)"/>
<rect x="29" y="11" width="1" height="1" fill="rgb(0,0,0)"/>
<rect x="22" y="12" width="1" height="1" fill="rgb(0,0,0)"/>
<rect x="23" y="12" width="1" height="1" fill="rgb(203,203,203)"/>
<rect x="24" y="12" width="1" height="1" fill="rgb(183,183,185)"/>
<rect x="25" y="12" width="1" height="1" fill="rgb(0,0,0)"/>
<rect x="26" y="12" width="2" height="1" fill="rgb(200,109,205)"/>
<rect x="28" y="12" width="1" height="1" fill="rgb(189,97,194)"/>
<rect x="29" y="12" width="1" height="1" fill="rgb(0,0,0)"/>
<rect x="21" y="13" width="1" height="1" fill="rgb(0,0,0)"/>
<rect x="22" y="13" width="1" height="1" fill="rgb(203,203,203)"/>
<rect x="23" y="13" width="1" height="1" fill="rgb(217,217,222)"/>
<rect x="24" y="13" width="1" height="1" fill="rgb(203,203,203)"/>
<rect x="25" y="13" width="1" height="1" fill="rgb(183,183,185)"/>
<rect x="26" y="13" width="1" height="1" fill="rgb(0,0,0)"/>
<rect x="27" y="13" width="2" height="1" fill="rgb(200,109,205)"/>
<rect x="29" y="13" width="1" height="1" fill="rgb(0,0,0)"/>
<rect x="20" y="14" width="1" height="1" fill="rgb(0,0,0)"/>
<rect x="21" y="14" width="1" height="1" fill="rgb(203,203,203)"/>
<rect x="22" y="14" width="1" height="1" fill="rgb(217,217,222)"/>
<rect x="23" y="14" width="2" height="1" fill="rgb(203,203,203)"/>
<rect x="25" y="14" width="1" height="1" fill="rgb(183,183,185)"/>
<rect x="26" y="14" width="3" height="1" fill="rgb(0,0,0)"/>
<rect x="19" y="15" width="1" height="1" fill="rgb(0,0,0)"/>
<rect x="20" y="15" width="1" height="1" fill="rgb(203,203,203)"/>
<rect x="21" y="15" width="1" height="1" fill="rgb(217,217,222)"/>
<rect x="22" y="15" width="2" height="1" fill="rgb(203,203,203)"/>
<rect x="24" y="15" width="1" height="1" fill="rgb(183,183,185)"/>
<rect x="25" y="15" width="1" height="1" fill="rgb(0,0,0)"/>
<rect x="19" y="16" width="1" height="1" fill="rgb(0,0,0)"/>
<rect x="20" y="16" width="1" height="1" fill="rgb(217,217,222)"/>
<rect x="21" y="16" width="2" height="1" fill="rgb(203,203,203)"/>
<rect x="23" y="16" width="1" height="1" fill="rgb(183,183,185)"/>
<rect x="24" y="16" width="1" height="1" fill="rgb(0,0,0)"/>
<rect x="18" y="17" width="1" height="1" fill="rgb(0,0,0)"/>
<rect x="19" y="17" width="1" height="1" fill="rgb(154,154,160)"/>
<rect x="20" y="17" width="2" height="1" fill="rgb(203,203,203)"/>
<rect x="22" y="17" width="1" height="1" fill="rgb(183,183,185)"/>
<rect x="23" y="17" width="1" height="1" fill="rgb(0,0,0)"/>
<rect x="18" y="18" width="1" height="1" fill="rgb(0,0,0)"/>
<rect x="19" y="18" width="1" height="1" fill="rgb(203,203,203)"/>
<rect x="20" y="18" width="1" height="1" fill="rgb(154,154,160)"/>
<rect x="21" y="18" width="2" height="1" fill="rgb(0,0,0)"/>
<rect x="18" y="19" width="3" height="1" fill="rgb(0,0,0)"/>
<rect x="11" y="20" width="2" height="1" fill="rgb(0,0,0)"/>
<rect x="27" y="20" width="2" height="1" fill="rgb(0,0,0)"/>
<rect x="10" y="21" width="1" height="1" fill="rgb(0,0,0)"/>
<rect x="11" y="21" width="2" height="1" fill="rgb(203,203,203)"/>
<rect x="13" y="21" width="1" height="1" fill="rgb(0,0,0)"/>
<rect x="26" y="21" width="1" height="1" fill="rgb(0,0,0)"/>
<rect x="27" y="21" width="2" height="1" fill="rgb(203,203,203)"/>
<rect x="29" y="21" width="1" height="1" fill="rgb(0,0,0)"/>
<rect x="9" y="22" width="1" height="1" fill="rgb(0,0,0)"/>
<rect x="10" y="22" width="3" height="1" fill="rgb(203,203,203)"/>
<rect x="13" y="22" width="1" height="1" fill="rgb(0,0,0)"/>
<rect x="15" y="22" width="4" height="1" fill="rgb(0,0,0)"/>
<rect x="26" y="22" width="1" height="1" fill="rgb(0,0,0)"/>
<rect x="27" y="22" width="3" height="1" fill="rgb(203,203,203)"/>
<rect x="30" y="22" width="1" height="1" fill="rgb(0,0,0)"/>
<rect x="8" y="23" width="1" height="1" fill="rgb(0,0,0)"/>
<rect x="9" y="23" width="3" height="1" fill="rgb(203,203,203)"/>
<rect x="12" y="23" width="1" height="1" fill="rgb(0,0,0)"/>
<rect x="14" y="23" width="1" height="1" fill="rgb(0,0,0)"/>
<rect x="15" y="23" width="4" height="1" fill="rgb(225,133,230)"/>
<rect x="19" y="23" width="1" height="1" fill="rgb(0,0,0)"/>
<rect x="27" y="23" width="1" height="1" fill="rgb(0,0,0)"/>
<rect x="28" y="23" width="3" height="1" fill="rgb(203,203,203)"/>
<rect x="31" y="23" width="1" height="1" fill="rgb(0,0,0)"/>
<rect x="7" y="24" width="1" height="1" fill="rgb(0,0,0)"/>
<rect x="8" y="24" width="3" height="1" fill="rgb(203,203,203)"/>
<rect x="11" y="24" width="1" height="1" fill="rgb(0,0,0)"/>
<rect x="13" y="24" width="1" height="1" fill="rgb(0,0,0)"/>
<rect x="14" y="24" width="2" height="1" fill="rgb(225,133,230)"/>
<rect x="16" y="24" width="1" height="1" fill="rgb(238,146,243)"/>
<rect x="17" y="24" width="3" height="1" fill="rgb(225,133,230)"/>
<rect x="20" y="24" width="1" height="1" fill="rgb(0,0,0)"/>
<rect x="28" y="24" width="1" height="1" fill="rgb(0,0,0)"/>
<rect x="29" y="24" width="3" height="1" fill="rgb(203,203,203)"/>
<rect x="32" y="24" width="1" height="1" fill="rgb(0,0,0)"/>
<rect x="6" y="25" width="1" height="1" fill="rgb(0,0,0)"/>
<rect x="7" y="25" width="3" height="1" fill="rgb(203,203,203)"/>
<rect x="10" y="25" width="1" height="1" fill="rgb(0,0,0)"/>
<rect x="12" y="25" width="1" height="1" fill="rgb(0,0,0)"/>
<rect x="13" y="25" width="2" height="1" fill="rgb(225,133,230)"/>
<rect x="15" y="25" width="1" height="1" fill="rgb(238,146,243)"/>
<rect x="16" y="25" width="5" height="1" fill="rgb(225,133,230)"/>
<rect x="21" y="25" width="1" height="1" fill="rgb(0,0,0)"/>
<rect x="29" y="25" width="1" height="1" fill="rgb(0,0,0)"/>
<rect x="30" y="25" width="3" height="1" fill="rgb(203,203,203)"/>
<rect x="33" y="25" width="1" height="1" fill="rgb(0,0,0)"/>
<rect x="6" y="26" width="1" height="1" fill="rgb(0,0,0)"/>
<rect x="7" y="26" width="2" height="1" fill="rgb(203,203,203)"/>
<rect x="9" y="26" width="1" height="1" fill="rgb(0,0,0)"/>
<rect x="12" y="26" width="1" height="1" fill="rgb(0,0,0)"/>
<rect x="13" y="26" width="1" height="1" fill="rgb(225,133,230)"/>
<rect x="14" y="26" width="1" height="1" fill="rgb(238,146,243)"/>
<rect x="15" y="26" width="4" height="1" fill="rgb(225,133,230)"/>
<rect x="19" y="26" width="1" height="1" fill="rgb(189,97,194)"/>
<rect x="20" y="26" width="1" height="1" fill="rgb(225,133,230)"/>
<rect x="21" y="26" width="1" height="1" fill="rgb(0,0,0)"/>
<rect x="30" y="26" width="1" height="1" fill="rgb(0,0,0)"/>
<rect x="31" y="26" width="2" height="1" fill="rgb(203,203,203)"/>
<rect x="33" y="26" width="1" height="1" fill="rgb(0,0,0)"/>
<rect x="6" y="27" width="1" height="1" fill="rgb(0,0,0)"/>
<rect x="7" y="27" width="2" height="1" fill="rgb(203,203,203)"/>
<rect x="9" y="27" width="1" height="1" fill="rgb(0,0,0)"/>
<rect x="12" y="27" width="1" height="1" fill="rgb(0,0,0)"/>
<rect x="13" y="27" width="6" height="1" fill="rgb(225,133,230)"/>
<rect x="19" y="27" width="1" height="1" fill="rgb(189,97,194)"/>
<rect x="20" y="27" width="1" height="1" fill="rgb(225,133,230)"/>
<rect x="21" y="27" width="1" height="1" fill="rgb(0,0,0)"/>
<rect x="30" y="27" width="1" height="1" fill="rgb(0,0,0)"/>
<rect x="31" y="27" width="2" height="1" fill="rgb(203,203,203)"/>
<rect x="33" y="27" width="1" height="1" fill="rgb(0,0,0)"/>
<rect x="6" y="28" width="1" height="1" fill="rgb(0,0,0)"/>
<rect x="7" y="28" width="2" height="1" fill="rgb(203,203,203)"/>
<rect x="9" y="28" width="1" height="1" fill="rgb(0,0,0)"/>
<rect x="12" y="28" width="1" height="1" fill="rgb(0,0,0)"/>
<rect x="13" y="28" width="5" height="1" fill="rgb(225,133,230)"/>
<rect x="18" y="28" width="1" height="1" fill="rgb(189,97,194)"/>
<rect x="19" y="28" width="2" height="1" fill="rgb(225,133,230)"/>
<rect x="21" y="28" width="1" height="1" fill="rgb(0,0,0)"/>
<rect x="30" y="28" width="1" height="1" fill="rgb(0,0,0)"/>
<rect x="31" y="28" width="2" height="1" fill="rgb(203,203,203)"/>
<rect x="33" y="28" width="1" height="1" fill="rgb(0,0,0)"/>
<rect x="6" y="29" width="1" height="1" fill="rgb(0,0,0)"/>
<rect x="7" y="29" width="3" height="1" fill="rgb(203,203,203)"/>
<rect x="10" y="29" width="1" height="1" fill="rgb(0,0,0)"/>
<rect x="13" y="29" width="1" height="1" fill="rgb(0,0,0)"/>
<rect x="14" y="29" width="2" height="1" fill="rgb(225,133,230)"/>
<rect x="16" y="29" width="2" height="1" fill="rgb(189,97,194)"/>
<rect x="18" y="29" width="2" height="1" fill="rgb(225,133,230)"/>
<rect x="20" y="29" width="1" height="1" fill="rgb(0,0,0)"/>
<rect x="29" y="29" width="1" height="1" fill="rgb(0,0,0)"/>
<rect x="30" y="29" width="3" height="1" fill="rgb(203,203,203)"/>
<rect x="33" y="29" width="1" height="1" fill="rgb(0,0,0)"/>
<rect x="7" y="30" width="1" height="1" fill="rgb(0,0,0)"/>
<rect x="8" y="30" width="3" height="1" fill="rgb(203,203,203)"/>
<rect x="11" y="30" width="1" height="1" fill="rgb(0,0,0)"/>
<rect x="14" y="30" width="1" height="1" fill="rgb(0,0,0)"/>
<rect x="15" y="30" width="4" height="1" fill="rgb(225,133,230)"/>
<rect x="19" y="30" width="1" height="1" fill="rgb(0,0,0)"/>
<rect x="28" y="30" width="1" height="1" fill="rgb(0,0,0)"/>
<rect x="29" y="30" width="3" height="1" fill="rgb(203,203,203)"/>
<rect x="32" y="30" width="1" height="1" fill="rgb(0,0,0)"/>
<rect x="8" y="31" width="1" height="1" fill="rgb(0,0,0)"/>
<rect x="9" y="31" width="3" height="1" fill="rgb(203,203,203)"/>
<rect x="12" y="31" width="1" height="1" fill="rgb(0,0,0)"/>
<rect x="15" y="31" width="4" height="1" fill="rgb(0,0,0)"/>
<rect x="27" y="31" width="1" height="1" fill="rgb(0,0,0)"/>
<rect x="28" y="31" width="3" height="1" fill="rgb(203,203,203)"/>
<rect x="31" y="31" width="1" height="1" fill="rgb(0,0,0)"/>
<rect x="9" y="32" width="1" height="1" fill="rgb(0,0,0)"/>
<rect x="10" y="32" width="3" height="1" fill="rgb(203,203,203)"/>
<rect x="13" y="32" width="1" height="1" fill="rgb(0,0,0)"/>
<rect x="26" y="32" width="1" height="1" fill="rgb(0,0,0)"/>
<rect x="27" y="32" width="3" height="1" fill="rgb(203,203,203)"/>
<rect x="30" y="32" width="1" height="1" fill="rgb(0,0,0)"/>
<rect x="10" y="33" width="1" height="1" fill="rgb(0,0,0)"/>
<rect x="11" y="33" width="2" height="1" fill="rgb(203,203,203)"/>
<rect x="13" y="33" width="1" height="1" fill="rgb(0,0,0)"/>
<rect x="26" y="33" width="1" height="1" fill="rgb(0,0,0)"/>
<rect x="27" y="33" width="2" height="1" fill="rgb(203,203,203)"/>
<rect x="29" y="33" width="1" height="1" fill="rgb(0,0,0)"/>
<rect x="11" y="34" width="2" height="1" fill="rgb(0,0,0)"/>
<rect x="27" y="34" width="2" height="1" fill="rgb(0,0,0)"/>
</svg>
</svg>